<svg width="100%" height="100%" preserveAspectRatio="none"  xmlns="http://www.w3.org/2000/svg" xlink="http://www.w3.org/1999/xlink"><path d="M0 42L26.7 42.7C53.3 43.3 106.7 44.7 160 47.5C213.3 50.3 266.7 54.7 320 54.8C373.3 55 426.7 51 480 48.3C533.3 45.7 586.7 44.3 640 42.5C693.3 40.7 746.7 38.3 800 41.8C853.3 45.3 906.7 54.7 933.3 59.3L960 64L960 0L933.3 0C906.7 0 853.3 0 800 0C746.7 0 693.3 0 640 0C586.7 0 533.3 0 480 0C426.7 0 373.3 0 320 0C266.7 0 213.3 0 160 0C106.7 0 53.3 0 26.7 0L0 0Z" fill="#0066FF" stroke-linecap="round" stroke-linejoin="miter"></path></svg>