<!--?xml version="1.0" standalone="no"?-->
              <svg id="sw-js-blob-svg" viewBox="0 0 100 100" xmlns="http://www.w3.org/2000/svg" version="1.1">
                    <defs> 
                        <linearGradient id="sw-gradient" x1="0" x2="1" y1="1" y2="0">
                            <stop id="stop1" stop-color="rgba(248, 117, 55, 1)" offset="0%"></stop>
                            <stop id="stop2" stop-color="rgba(251, 168, 31, 1)" offset="100%"></stop>
                        </linearGradient>
                    </defs>
                <path class="fill-class" fill="url(#sw-gradient)" d="M18.5,-24.2C24.5,-17.1,30,-11.7,31.2,-5.5C32.3,0.7,28.9,7.7,24.8,13.8C20.7,19.8,15.7,24.8,9.4,28.1C3,31.4,-4.8,33,-11.4,30.8C-18,28.6,-23.4,22.6,-29.1,15.5C-34.7,8.4,-40.6,0.1,-39.5,-7.1C-38.3,-14.2,-30.1,-20.2,-22.4,-27C-14.7,-33.9,-7.3,-41.6,-0.5,-41C6.3,-40.3,12.6,-31.4,18.5,-24.2Z" width="100%" height="100%" transform="translate(50 50)" stroke-width="0"></path>
              </svg>